---
title: ".mts to .avi"
date: 2009-12-25
forum: Multimedia Software
---

### Post by oxman on 2009-12-25
Hello and thanks in advance for your help.

I am trying to convert mts to avi using ffmpeg. Here is what I get.

```
*@singingfalls:~/desktop/temp$ ffmpeg -i 00000.MTS 00000.avi
FFmpeg version SVN-rUNKNOWN, Copyright (c) 2000-2007 Fabrice Bellard, et al.
  configuration: --enable-gpl --enable-pp --enable-swscaler --enable-pthreads --enable-libvorbis --enable-libtheora --enable-libogg --enable-libgsm --enable-dc1394 --disable-debug --enable-libmp3lame --enable-libfaadbin --enable-libfaad --enable-libfaac --enable-xvid --enable-x264 --enable-liba52 --enable-amr_nb --enable-amr_wb --enable-shared --prefix=/usr
  libavutil version: 1d.49.3.0
  libavcodec version: 1d.51.38.0
  libavformat version: 1d.51.10.0
  built on Mar 17 2009 21:11:10, gcc: 4.2.4 (Ubuntu 4.2.4-1ubuntu3)
[h264 @ 0x7f653c7a08d0]PAFF interlacing is not implemented
[h264 @ 0x7f653c7a08d0]concealing 3060 DC, 3060 AC, 3060 MV errors
Input #0, mpegts, from '00000.MTS':
  Duration: 00:00:06.2, start: 0.800300, bitrate: 7007 kb/s
  Stream #0.0[0x1011]: Video: h264, yuv420p, 1440x1080, 29.97 fps(r)
  Stream #0.1[0x1100]: Audio: ac3, 48000 Hz, stereo, 256 kb/s
Output #0, avi, to '00000.avi':
  Stream #0.0: Video: mpeg4, yuv420p, 1440x1080, q=2-31, 200 kb/s, 29.97 fps(c)
  Stream #0.1: Audio: mp2, 48000 Hz, stereo, 64 kb/s
Stream mapping:
  Stream #0.0 -> #0.0
  Stream #0.1 -> #0.1
Press [q] to stop encoding
[h264 @ 0x7f653c7a08d0]PAFF interlacing is not implemented
[h264 @ 0x7f653c7a08d0]concealing 3060 DC, 3060 AC, 3060 MV errors
[h264 @ 0x7f653c7a08d0]PAFF interlacing is not implemented
[h264 @ 0x7f653c7a08d0]illegal short term buffer state detected
[h264 @ 0x7f653c7a08d0]concealing 3060 DC, 3060 AC, 3060 MV errors
[h264 @ 0x7f653c7a08d0]PAFF interlacing is not implemented
[h264 @ 0x7f653c7a08d0]concealing 3060 DC, 3060 AC, 3060 MV errors
[h264 @ 0x7f653c7a08d0]PAFF interlacing is not implemented
[h264 @ 0x7f653c7a08d0]concealing 3060 DC, 3060 AC, 3060 MV errors
[h264 @ 0x7f653c7a08d0]PAFF interlacing is not implemented
[h264 @ 0x7f653c7a08d0]concealing 3060 DC, 3060 AC, 3060 MV errors
[h264 @ 0x7f653c7a08d0]PAFF interlacing is not implemented
[h264 @ 0x7f653c7a08d0]concealing 3060 DC, 3060 AC, 3060 MV errors
[h264 @ 0x7f653c7a08d0]PAFF interlacing is not implemented
[h264 @ 0x7f653c7a08d0]concealing 3060 DC, 3060 AC, 3060 MV errors
[h264 @ 0x7f653c7a08d0]PAFF interlacing is not implemented
[h264 @ 0x7f653c7a08d0]illegal short term buffer state detected
[h264 @ 0x7f653c7a08d0]concealing 3060 DC, 3060 AC, 3060 MV errors
[h264 @ 0x7f653c7a08d0]PAFF interlacing is not implemented
[h264 @ 0x7f653c7a08d0]concealing 3060 DC, 3060 AC, 3060 MV errors
[h264 @ 0x7f653c7a08d0]PAFF interlacing is not implemented
[h264 @ 0x7f653c7a08d0]concealing 3060 DC, 3060 AC, 3060 MV errors
Segmentation fault

```I keep getting segmentation faults.

---

